<svg width="600" height="400" viewBox="0 0 600 400" fill="none" xmlns="http://www.w3.org/2000/svg">
  <!-- Background elements -->
  <circle cx="300" cy="200" r="150" fill="#F3F4F6" />
  <circle cx="480" cy="100" r="30" fill="#E5E7EB" />
  <circle cx="120" cy="320" r="40" fill="#E5E7EB" />
  
  <!-- Robot chat bubble -->
  <path d="M160 150C160 138.954 168.954 130 180 130H260C271.046 130 280 138.954 280 150V210C280 221.046 271.046 230 260 230H200L180 250V230H180C168.954 230 160 221.046 160 210V150Z" fill="#4F46E5" />
  
  <!-- Robot avatar -->
  <circle cx="140" cy="190" r="40" fill="#6366F1" stroke="#4F46E5" stroke-width="4" />
  <rect x="120" y="180" width="10" height="10" rx="2" fill="white" />
  <rect x="150" y="180" width="10" height="10" rx="2" fill="white" />
  <path d="M125 205C125 205 135 215 155 205" stroke="white" stroke-width="3" stroke-linecap="round" />
  <rect x="132" y="160" width="16" height="8" rx="4" fill="#4F46E5" />
  
  <!-- User chat bubble -->
  <path d="M320 250C320 238.954 328.954 230 340 230H420C431.046 230 440 238.954 440 250V310C440 321.046 431.046 330 420 330H360L340 350V330H340C328.954 330 320 321.046 320 310V250Z" fill="white" stroke="#E5E7EB" stroke-width="2" />
  
  <!-- User avatar -->
  <circle cx="460" cy="290" r="40" fill="#F9FAFB" stroke="#E5E7EB" stroke-width="2" />
  <path d="M440 305C440 305 450 285 480 305" stroke="#6B7280" stroke-width="2" stroke-linecap="round" />
  <circle cx="450" cy="280" r="5" fill="#6B7280" />
  <circle cx="470" cy="280" r="5" fill="#6B7280" />
  
  <!-- Robot message -->
  <rect x="180" y="150" width="15" height="4" rx="2" fill="white" />
  <rect x="180" y="160" width="60" height="4" rx="2" fill="white" />
  <rect x="180" y="170" width="40" height="4" rx="2" fill="white" />
  <rect x="180" y="180" width="50" height="4" rx="2" fill="white" />
  <rect x="180" y="190" width="30" height="4" rx="2" fill="white" />
  
  <!-- User message -->
  <rect x="340" y="260" width="15" height="4" rx="2" fill="#6B7280" />
  <rect x="340" y="270" width="60" height="4" rx="2" fill="#6B7280" />
  <rect x="340" y="280" width="40" height="4" rx="2" fill="#6B7280" />
  <rect x="340" y="290" width="50" height="4" rx="2" fill="#6B7280" />
  
  <!-- Connection dots -->
  <circle cx="300" cy="220" r="3" fill="#D1D5DB" />
  <circle cx="310" cy="220" r="3" fill="#D1D5DB" />
  <circle cx="290" cy="220" r="3" fill="#D1D5DB" />
  
  <!-- AI elements -->
  <path d="M190 80C190 80 240 40 290 80" stroke="#6366F1" stroke-width="2" stroke-dasharray="4 4" />
  <path d="M410 320C410 320 460 280 510 320" stroke="#6366F1" stroke-width="2" stroke-dasharray="4 4" />
  
  <!-- Abstract data -->
  <rect x="490" y="180" width="40" height="4" rx="2" fill="#6366F1" />
  <rect x="480" y="190" width="60" height="4" rx="2" fill="#6366F1" />
  <rect x="500" y="200" width="30" height="4" rx="2" fill="#6366F1" />
  
  <rect x="70" y="120" width="40" height="4" rx="2" fill="#6366F1" />
  <rect x="60" y="130" width="60" height="4" rx="2" fill="#6366F1" />
  <rect x="80" y="140" width="30" height="4" rx="2" fill="#6366F1" />
</svg> 